<svg width="512" height="512" viewBox="0 0 512 512" fill="none" xmlns="http://www.w3.org/2000/svg">
  <!-- Geometric icon (white for dark backgrounds) -->
  <path d="M217 39C217 17.46 234.46 0 256 0C277.54 0 295 17.46 295 39V157C295 178.54 277.54 196 256 196C234.46 196 217 178.54 217 157V39Z" fill="#FFFFFF"/>
  <path d="M472 217C493.54 217 511 234.46 511 256C511 277.54 493.54 295 472 295H354C332.46 295 315 277.54 315 256C315 234.46 332.46 217 354 217H472Z" fill="#FFFFFF"/>
  <path d="M437 382C451.91 396.91 451.91 421.09 437 436C422.09 450.91 397.91 450.91 383 436L298 351C283.09 336.09 283.09 311.91 298 297C312.91 282.09 337.09 282.09 352 297L437 382Z" fill="#FFFFFF"/>
  <path d="M295 472C295 493.54 277.54 511 256 511C234.46 511 217 493.54 217 472V354C217 332.46 234.46 315 256 315C277.54 315 295 332.46 295 354V472Z" fill="#FFFFFF"/>
  <path d="M129 436C114.09 450.91 89.91 450.91 75 436C60.09 421.09 60.09 396.91 75 382L160 297C174.91 282.09 199.09 282.09 214 297C228.91 311.91 228.91 336.09 214 351L129 436Z" fill="#FFFFFF"/>
  <path d="M39 295C17.46 295 0 277.54 0 256C0 234.46 17.46 217 39 217H157C178.54 217 196 234.46 196 256C196 277.54 178.54 295 157 295H39Z" fill="#FFFFFF"/>
  <path d="M75 129C60.09 114.09 60.09 89.91 75 75C89.91 60.09 114.09 60.09 129 75L214 160C228.91 174.91 228.91 199.09 214 214C199.09 228.91 174.91 228.91 160 214L75 129Z" fill="#FFFFFF"/>
  <!-- Heart (coral - stays the same) -->
  <path d="M400 19C411.55 21.55 420.67 27 426.55 35.6C432.23 43.83 433.6 53.2 433.57 61.15C433.54 68.36 432.33 75.62 431.13 81.76C437.43 81.37 444.33 81.3 450.95 82.03C458.68 82.88 467.43 84.94 475 89.88C483.08 95.14 489.09 103.24 491.15 114.27C493.19 125.13 492.26 135.17 488.11 144C484.01 152.69 477.37 158.92 470.26 163.4C456.71 171.95 438.76 175.73 425.19 178.5C404.42 182.73 373.47 188.4 348.39 163.32C322.65 137.58 331.42 102.72 335.59 87.63C338.21 78.16 342.19 59.91 350.15 45.47C354.29 37.97 360.07 30.34 368.35 25.01C376.97 19.46 387.29 17.06 399.01 18.64L399.61 18.72L400.19 18.85V19H400ZM402.74 51.9C401.97 50.77 400.12 48.78 394.55 47.44C389.7 46.89 386.55 47.94 384.11 49.51C381.26 51.35 378.38 54.58 375.62 59.59C369.81 70.14 366.96 83.42 363.65 95.4C359.14 111.76 356.32 130.05 368.86 142.59C381.93 155.66 397.68 154.24 419.3 149.84C433.9 146.87 446.43 143.87 454.75 138.64C458.57 136.23 460.72 133.79 461.87 131.36C462.96 129.02 463.76 125.39 462.63 119.38C462.1 116.56 460.94 115.17 459.2 114.03C456.96 112.57 453.28 111.33 447.86 110.73C436.76 109.5 424.36 111.4 415.2 112.41C410.87 112.89 406.55 111.4 403.44 108.35C400.33 105.3 398.75 101.02 399.14 96.68C399.68 90.64 401.35 83.33 402.49 77.65C403.76 71.31 404.68 65.78 404.69 60.97C404.71 56.17 403.77 53.53 402.74 52.03V51.9Z" fill="#F47151"/>
  <ellipse cx="388.38" cy="100.31" rx="39.68" ry="60.21" fill="#F47151"/>
  <ellipse cx="415.77" cy="129.13" rx="39.68" ry="60.21" transform="rotate(75 415.77 129.13)" fill="#F47151"/>
</svg>
