<svg width="143" height="33" viewBox="0 0 143 33" fill="none" xmlns="http://www.w3.org/2000/svg">
<path d="M40.936 27L35.7 8.324H40.656L43.932 22.828H43.176L47.376 8.324H50.876L55.16 23.024H54.32L57.624 8.324H62.58L57.344 27H52.864L48.748 13.56H49.56L45.416 27H40.936ZM68.4589 27.42C67.0402 27.42 65.7802 27.1307 64.6789 26.552C63.5962 25.9547 62.7469 25.1147 62.1309 24.032C61.5336 22.9307 61.2349 21.624 61.2349 20.112C61.2349 17.648 61.8416 15.744 63.0549 14.4C64.2869 13.0373 66.0416 12.356 68.3189 12.356C69.8869 12.356 71.1469 12.692 72.0989 13.364C73.0696 14.036 73.7789 15.016 74.2269 16.304C74.6749 17.592 74.8896 19.16 74.8709 21.008H64.0909L63.6429 18.348H71.4269L70.8109 19.664C70.7922 18.152 70.5776 17.088 70.1669 16.472C69.7562 15.856 69.0842 15.548 68.1509 15.548C67.6282 15.548 67.1522 15.6787 66.7229 15.94C66.3122 16.2013 65.9856 16.64 65.7429 17.256C65.5189 17.8533 65.4069 18.684 65.4069 19.748C65.4069 21.092 65.7242 22.128 66.3589 22.856C67.0122 23.584 68.0482 23.948 69.4669 23.948C69.9896 23.948 70.5029 23.892 71.0069 23.78C71.5296 23.6493 72.0149 23.5 72.4629 23.332C72.9109 23.164 73.2936 23.0147 73.6109 22.884V26.468C72.9389 26.748 72.1829 26.972 71.3429 27.14C70.5216 27.3267 69.5602 27.42 68.4589 27.42ZM80.2336 27H76.0896V7.484H80.2336V27ZM86.4012 27H82.2572V7.484H86.4012V27ZM95.0889 27.42C93.7822 27.42 92.6249 27.2147 91.6169 26.804C90.6089 26.3933 89.8249 25.768 89.2649 24.928C88.7049 24.0693 88.4249 22.9587 88.4249 21.596V12.832H92.5969V21.26C92.5969 22.156 92.7929 22.828 93.1849 23.276C93.5955 23.7053 94.2395 23.92 95.1169 23.92C96.0129 23.92 96.6569 23.7053 97.0489 23.276C97.4409 22.828 97.6369 22.156 97.6369 21.26V12.832H101.557V21.596C101.557 23.612 100.978 25.0867 99.8209 26.02C98.6635 26.9533 97.0862 27.42 95.0889 27.42ZM110.057 27.42C109.273 27.42 108.489 27.364 107.705 27.252C106.94 27.1587 106.24 26.9813 105.605 26.72C104.989 26.44 104.495 26.0667 104.121 25.6C103.748 25.1147 103.561 24.4893 103.561 23.724V7.596H107.649V15.324L106.865 14.008C107.201 13.616 107.631 13.308 108.153 13.084C108.676 12.8413 109.208 12.6733 109.749 12.58C110.291 12.4867 110.739 12.44 111.093 12.44C113.184 12.44 114.771 13.0747 115.853 14.344C116.955 15.5947 117.505 17.4333 117.505 19.86C117.505 21.2787 117.319 22.4733 116.945 23.444C116.572 24.4147 116.049 25.1893 115.377 25.768C114.705 26.3467 113.921 26.7667 113.025 27.028C112.129 27.2893 111.14 27.42 110.057 27.42ZM110.001 23.948C110.823 23.948 111.476 23.7893 111.961 23.472C112.447 23.136 112.792 22.6787 112.997 22.1C113.221 21.5213 113.333 20.8587 113.333 20.112C113.333 19.048 113.193 18.1987 112.913 17.564C112.633 16.9293 112.251 16.472 111.765 16.192C111.28 15.912 110.72 15.772 110.085 15.772C109.712 15.772 109.301 15.8187 108.853 15.912C108.405 16.0053 108.004 16.1547 107.649 16.36V22.632C107.649 22.968 107.752 23.2293 107.957 23.416C108.163 23.6027 108.443 23.7427 108.797 23.836C109.171 23.9107 109.572 23.948 110.001 23.948ZM125.11 27.42C123.691 27.42 122.431 27.1307 121.33 26.552C120.247 25.9547 119.398 25.1147 118.782 24.032C118.184 22.9307 117.886 21.624 117.886 20.112C117.886 17.648 118.492 15.744 119.706 14.4C120.938 13.0373 122.692 12.356 124.97 12.356C126.538 12.356 127.798 12.692 128.75 13.364C129.72 14.036 130.43 15.016 130.878 16.304C131.326 17.592 131.54 19.16 131.522 21.008H120.742L120.294 18.348H128.078L127.462 19.664C127.443 18.152 127.228 17.088 126.818 16.472C126.407 15.856 125.735 15.548 124.802 15.548C124.279 15.548 123.803 15.6787 123.374 15.94C122.963 16.2013 122.636 16.64 122.394 17.256C122.17 17.8533 122.058 18.684 122.058 19.748C122.058 21.092 122.375 22.128 123.01 22.856C123.663 23.584 124.699 23.948 126.118 23.948C126.64 23.948 127.154 23.892 127.658 23.78C128.18 23.6493 128.666 23.5 129.114 23.332C129.562 23.164 129.944 23.0147 130.262 22.884V26.468C129.59 26.748 128.834 26.972 127.994 27.14C127.172 27.3267 126.211 27.42 125.11 27.42ZM132.74 27V14.316C133.002 14.092 133.468 13.84 134.14 13.56C134.812 13.2613 135.578 13 136.436 12.776C137.314 12.5333 138.191 12.412 139.068 12.412C139.946 12.412 140.636 12.4773 141.14 12.608C141.644 12.7387 142.027 12.9067 142.288 13.112V16.164C141.971 16.0893 141.57 16.0333 141.084 15.996C140.599 15.9587 140.095 15.94 139.572 15.94C139.05 15.9213 138.555 15.9213 138.088 15.94C137.622 15.9587 137.23 15.996 136.912 16.052V27H132.74Z" fill="#403DDB"/>
<g clip-path="url(#clip0_661_14)">
<path d="M16.834 13.5C17.7517 13.5 18.5 14.2495 18.5 15.165V20.5H13.1631C12.2478 20.4998 11.5 19.7526 11.5 18.835C11.5 17.9199 12.2474 17.1721 13.1631 17.1719C13.3043 17.1719 13.441 17.1881 13.5713 17.2207V17.2197C14.0363 17.3377 14.525 17.2005 14.8613 16.8643C15.199 16.5264 15.3372 16.0382 15.2188 15.5723H15.2197C15.1872 15.4421 15.1709 15.3061 15.1709 15.165C15.1709 14.2493 15.919 13.5002 16.834 13.5Z" fill="#3ACCCD" stroke="#3ACCCD"/>
<path d="M27.3211 11.1922H19.809V7.01194C19.809 4.8 18.0107 3 15.7986 3H9.86805C9.63341 3 9.42742 3.11821 9.30562 3.2991C9.23219 3.40836 9.1892 3.5391 9.1892 3.67881V11.1922H5.01042C2.80012 11.1922 1 12.9904 1 15.2006V21.1325C1 21.5069 1.3045 21.8113 1.67885 21.8113H9.1892V25.9899C9.1892 28.2018 10.9893 30 13.1996 30H19.1302C19.5045 30 19.809 29.6973 19.809 29.3212V21.8113H23.9878C26.1999 21.8113 28 20.0113 28 17.7994V11.871C28 11.4949 27.6955 11.1922 27.3211 11.1922ZM13.8462 20.4537C12.9059 20.4537 12.1392 19.6872 12.1392 18.7451C12.1392 17.8048 12.9059 17.0382 13.8462 17.0382C13.9877 17.0382 14.1274 17.0543 14.2636 17.0884C14.4946 17.1475 14.7382 17.0794 14.9066 16.911C15.0768 16.7409 15.1448 16.4973 15.0857 16.2663C15.0517 16.1301 15.0356 15.9904 15.0356 15.849C15.0356 14.9087 15.8022 14.1403 16.7425 14.1403C17.6847 14.1403 18.4513 14.9087 18.4513 15.849V20.4537H13.8462ZM26.6423 17.7994C26.6423 19.2627 25.453 20.4537 23.9878 20.4537H19.809V15.849C19.809 14.1582 18.4334 12.7827 16.7425 12.7827C15.109 12.7827 13.7674 14.0704 13.6832 15.6842C12.0676 15.7701 10.7815 17.1099 10.7815 18.7451C10.7815 19.4346 11.0108 20.0722 11.3959 20.5845C11.5714 20.8191 11.7792 21.0269 12.0139 21.2006C12.5243 21.5839 13.1602 21.8113 13.8462 21.8113H18.4513V28.6424H13.1996C11.7362 28.6424 10.5469 27.4531 10.5469 25.9899V21.1325C10.5469 20.9678 10.4878 20.8173 10.3911 20.7009C10.3785 20.683 10.3624 20.6687 10.3481 20.6525C10.2245 20.529 10.0543 20.4537 9.86805 20.4537H2.3577V15.2006C2.3577 13.7391 3.54703 12.5499 5.01042 12.5499H9.86805C10.2424 12.5499 10.5469 12.2454 10.5469 11.871V4.35761H15.7986C17.2602 4.35761 18.4513 5.54866 18.4513 7.01194V11.871C18.4513 12.2454 18.7558 12.5499 19.1302 12.5499H26.6423V17.7994Z" fill="#403DDB" stroke="#403DDB"/>
</g>
<defs>
<clipPath id="clip0_661_14">
<rect width="29" height="29" fill="white" transform="translate(0 2)"/>
</clipPath>
</defs>
</svg>
