<svg width="29" height="29" viewBox="0 0 29 29" fill="none" xmlns="http://www.w3.org/2000/svg">
<g clip-path="url(#clip0_4218_2)">
<path d="M16.834 11.5C17.7517 11.5 18.5 12.2495 18.5 13.165V18.5H13.1631C12.2478 18.4998 11.5 17.7526 11.5 16.835C11.5 15.9199 12.2474 15.1721 13.1631 15.1719C13.3043 15.1719 13.441 15.1881 13.5713 15.2207V15.2197C14.0363 15.3377 14.525 15.2005 14.8613 14.8643C15.199 14.5264 15.3372 14.0382 15.2188 13.5723H15.2197C15.1872 13.4421 15.1709 13.3061 15.1709 13.165C15.1709 12.2493 15.919 11.5002 16.834 11.5Z" fill="#3ACCCD" stroke="#3ACCCD"/>
<path d="M27.3211 9.19224H19.809V5.01194C19.809 2.8 18.0107 1 15.7986 1H9.86805C9.63341 1 9.42742 1.11821 9.30563 1.2991C9.23219 1.40836 9.1892 1.5391 9.1892 1.67881V9.19224H5.01042C2.80012 9.19224 1 10.9904 1 13.2006V19.1325C1 19.5069 1.3045 19.8113 1.67885 19.8113H9.1892V23.9899C9.1892 26.2018 10.9893 28 13.1996 28H19.1302C19.5045 28 19.809 27.6973 19.809 27.3212V19.8113H23.9878C26.1999 19.8113 28 18.0113 28 15.7994V9.87104C28 9.49493 27.6955 9.19224 27.3211 9.19224ZM13.8462 18.4537C12.9059 18.4537 12.1392 17.6872 12.1392 16.7451C12.1392 15.8048 12.9059 15.0382 13.8462 15.0382C13.9877 15.0382 14.1274 15.0543 14.2636 15.0884C14.4946 15.1475 14.7382 15.0794 14.9066 14.911C15.0768 14.7409 15.1448 14.4973 15.0857 14.2663C15.0517 14.1301 15.0356 13.9904 15.0356 13.849C15.0356 12.9087 15.8022 12.1403 16.7425 12.1403C17.6847 12.1403 18.4513 12.9087 18.4513 13.849V18.4537H13.8462ZM26.6423 15.7994C26.6423 17.2627 25.453 18.4537 23.9878 18.4537H19.809V13.849C19.809 12.1582 18.4334 10.7827 16.7425 10.7827C15.109 10.7827 13.7674 12.0704 13.6832 13.6842C12.0676 13.7701 10.7815 15.1099 10.7815 16.7451C10.7815 17.4346 11.0108 18.0722 11.3959 18.5845C11.5714 18.8191 11.7792 19.0269 12.0139 19.2006C12.5243 19.5839 13.1602 19.8113 13.8462 19.8113H18.4513V26.6424H13.1996C11.7362 26.6424 10.5469 25.4531 10.5469 23.9899V19.1325C10.5469 18.9678 10.4878 18.8173 10.3911 18.7009C10.3785 18.683 10.3624 18.6687 10.3481 18.6525C10.2245 18.529 10.0543 18.4537 9.86805 18.4537H2.3577V13.2006C2.3577 11.7391 3.54703 10.5499 5.01042 10.5499H9.86805C10.2424 10.5499 10.5469 10.2454 10.5469 9.87104V2.35761H15.7986C17.2602 2.35761 18.4513 3.54866 18.4513 5.01194V9.87104C18.4513 10.2454 18.7558 10.5499 19.1302 10.5499H26.6423V15.7994Z" fill="white" stroke="white"/>
</g>
<defs>
<clipPath id="clip0_4218_2">
<rect width="29" height="29" fill="white"/>
</clipPath>
</defs>
</svg>
