<svg width="1941" height="495" viewBox="0 0 1941 495" fill="none" xmlns="http://www.w3.org/2000/svg">
<path fill-rule="evenodd" clip-rule="evenodd" d="M1736.68 182.906C1755.29 182.906 1771.1 187.298 1784.13 196.082C1797.16 204.866 1806.79 217.218 1813.03 233.139C1814.37 236.552 1815.52 240.095 1816.48 243.767C1823.08 268.858 1799.68 289.3 1773.73 289.3H1695.08C1696.48 299.975 1699.78 308.649 1704.99 315.322C1712.21 324.325 1722.78 328.827 1736.68 328.827C1745.44 328.827 1752.93 326.905 1759.17 323.062C1765.41 319.22 1770.17 313.675 1773.46 306.428L1818.12 319.274C1811.44 335.524 1800.88 348.151 1786.43 357.155C1772.09 366.158 1756.38 370.66 1739.31 370.66C1721.13 370.66 1705.1 366.762 1691.2 358.966C1677.4 351.061 1666.57 340.246 1658.69 326.521C1650.91 312.687 1647.03 296.876 1647.03 279.089C1647.03 259.655 1650.86 242.746 1658.52 228.362C1666.18 213.979 1676.75 202.834 1690.21 194.929C1703.68 186.914 1719.16 182.906 1736.68 182.906ZM1738.65 221.774C1723.43 221.774 1712.21 226.441 1704.99 235.774C1700.91 241.063 1698 247.816 1696.26 256.031H1774.41C1773.1 246.41 1770.54 238.999 1766.73 233.797C1761.03 225.782 1751.67 221.774 1738.65 221.774Z" fill="#4338CA"/>
<path d="M679.365 365.811L618.377 157.396C614.179 143.051 624.936 128.695 639.882 128.695C649.99 128.695 658.846 135.462 661.502 145.215L701.398 291.712L739.649 151.538C743.281 138.226 755.329 128.958 769.128 128.861C783.092 128.763 795.372 138.079 799.042 151.553L837.211 291.712L877.107 145.215C879.762 135.462 888.619 128.695 898.726 128.695C913.673 128.695 924.43 143.051 920.232 157.396L859.244 365.811H815.178L769.304 205.758L723.43 365.811H679.365Z" fill="#4338CA"/>
<path fill-rule="evenodd" clip-rule="evenodd" d="M995.817 182.906C1014.52 182.906 1030.42 187.298 1043.51 196.082C1056.6 204.866 1066.28 217.218 1072.56 233.139C1073.9 236.56 1075.06 240.11 1076.03 243.789C1082.66 268.866 1059.25 289.3 1033.31 289.3H954.009C955.411 299.975 958.73 308.649 963.966 315.322C971.228 324.325 981.845 328.827 995.817 328.827C1004.62 328.827 1012.16 326.905 1018.43 323.062C1024.7 319.22 1029.48 313.675 1032.78 306.428L1077.67 319.274C1070.96 335.524 1060.34 348.151 1045.82 357.155C1031.41 366.158 1015.62 370.66 998.458 370.66C980.194 370.66 964.076 366.762 950.104 358.966C936.241 351.061 925.349 340.246 917.428 326.521C909.617 312.687 905.711 296.876 905.711 279.089C905.711 259.655 909.562 242.746 917.263 228.362C924.964 213.979 935.581 202.834 949.114 194.929C962.646 186.914 978.214 182.906 995.817 182.906ZM997.797 221.774C982.505 221.774 971.228 226.441 963.966 235.774C959.865 241.063 956.941 247.816 955.191 256.031H1033.74C1032.43 246.41 1029.85 238.999 1026.02 233.797C1020.3 225.782 1010.89 221.774 997.797 221.774Z" fill="#4338CA"/>
<path d="M1099.64 365.811V168.362C1099.64 143.777 1119.57 123.848 1144.15 123.848V365.811H1099.64Z" fill="#4338CA"/>
<path d="M1177.21 365.811V168.803C1177.21 143.975 1197.33 123.848 1222.16 123.848V365.811H1177.21Z" fill="#4338CA"/>
<path d="M1348.21 370.659C1329.1 370.659 1312.3 366.818 1297.81 359.137C1283.31 351.346 1272 340.427 1263.88 326.381C1255.75 312.335 1251.69 295.82 1251.69 276.836V151.591C1251.69 139.101 1261.77 128.952 1274.26 128.861C1286.87 128.77 1297.15 138.973 1297.15 151.591V276.507C1297.15 284.298 1298.47 291.376 1301.1 297.741C1303.74 304.105 1307.36 309.592 1311.97 314.201C1316.7 318.81 1322.13 322.376 1328.28 324.9C1334.54 327.314 1341.18 328.521 1348.21 328.521C1355.46 328.521 1362.16 327.259 1368.31 324.735C1374.56 322.212 1380 318.645 1384.61 314.036C1389.22 309.427 1392.79 303.941 1395.32 297.576C1397.95 291.212 1399.27 284.189 1399.27 276.507V151.426C1399.27 138.872 1409.45 128.695 1422 128.695C1434.55 128.695 1444.73 138.872 1444.73 151.426V276.836C1444.73 295.82 1440.67 312.335 1432.54 326.381C1424.42 340.427 1413.11 351.346 1398.61 359.137C1384.12 366.818 1367.32 370.659 1348.21 370.659Z" fill="#4338CA"/>
<path d="M1470.29 365.811V128.695C1495.12 128.695 1515.25 148.822 1515.25 173.65V243.96H1509.67V365.811H1470.29Z" fill="#4338CA"/>
<path d="M1836.99 365.807V187.902C1858.73 187.902 1876.36 205.53 1876.36 227.276V231.389L1872.1 225.789C1874.39 219.639 1877.45 214.038 1881.28 208.987C1885.11 203.935 1889.81 199.762 1895.39 196.467C1899.66 193.832 1904.31 191.8 1909.34 190.373C1914.37 188.835 1919.56 187.902 1924.92 187.572C1930.28 187.133 1935.64 187.243 1941 187.902V229.742C1936.08 228.205 1930.34 227.711 1923.77 228.26C1917.32 228.699 1911.47 230.181 1906.22 232.707C1900.97 235.123 1896.54 238.363 1892.93 242.426C1889.32 246.38 1886.59 251.102 1884.73 256.593C1882.87 261.974 1881.94 268.069 1881.94 274.877V365.807H1836.99Z" fill="#4338CA"/>
<path d="M1555.52 182.902C1572.54 182.902 1587.36 186.965 1599.99 195.09C1612.62 203.215 1622.39 214.36 1629.31 228.523C1636.33 242.577 1639.85 258.663 1639.85 276.779C1639.85 294.566 1636.39 310.542 1629.47 324.706C1622.66 338.87 1613.11 350.069 1600.81 358.304C1588.52 366.539 1574.19 370.656 1557.83 370.656C1540.15 370.656 1525.38 366.538 1513.53 358.304C1501.67 350.069 1492.72 338.87 1486.68 324.706C1480.75 310.542 1477.79 294.566 1477.79 276.779C1477.79 258.992 1480.75 243.016 1486.68 228.853C1492.61 214.689 1501.34 203.49 1512.87 195.255C1524.39 187.02 1538.61 182.902 1555.52 182.902ZM1548.94 222.758C1539.6 222.758 1532.03 225.009 1526.21 229.511C1520.5 234.012 1516.33 240.325 1513.69 248.45C1511.06 256.575 1509.74 266.018 1509.74 276.778C1509.74 287.538 1511.06 296.981 1513.69 305.105C1516.33 313.23 1520.61 319.544 1526.54 324.046C1532.58 328.548 1540.59 330.798 1550.58 330.798C1560.25 330.798 1568.15 328.383 1574.3 323.552C1580.45 318.721 1585 312.242 1587.97 304.117C1590.93 295.883 1592.42 286.77 1592.42 276.778C1592.42 266.897 1590.88 257.893 1587.8 249.768C1584.73 241.533 1579.95 235 1573.48 230.169C1567.11 225.228 1558.93 222.758 1548.94 222.758Z" fill="#4338CA"/>
<path d="M209.527 37.5049C209.527 16.7915 226.319 0 247.032 0C267.746 0 284.537 16.7915 284.537 37.5049V152.52C284.537 173.233 267.746 190.025 247.032 190.025C226.319 190.025 209.527 173.233 209.527 152.52V37.5049Z" fill="#4338CA"/>
<path d="M456.559 209.527C477.272 209.527 494.064 226.319 494.064 247.032C494.064 267.746 477.272 284.537 456.559 284.537H341.544C320.831 284.537 304.039 267.746 304.039 247.032C304.039 226.319 320.831 209.527 341.544 209.527H456.559Z" fill="#4338CA"/>
<path d="M421.71 368.672C436.357 383.319 436.357 407.066 421.71 421.712C407.064 436.359 383.317 436.359 368.67 421.712L287.342 340.384C272.696 325.738 272.696 301.991 287.342 287.344C301.989 272.698 325.736 272.698 340.382 287.344L421.71 368.672Z" fill="#4338CA"/>
<path d="M284.537 456.559C284.537 477.272 267.746 494.064 247.032 494.064C226.319 494.064 209.527 477.272 209.527 456.559L209.527 341.544C209.527 320.831 226.319 304.039 247.032 304.039C267.746 304.039 284.537 320.831 284.537 341.544L284.537 456.559Z" fill="#4338CA"/>
<path d="M125.394 421.712C110.747 436.359 87.0006 436.359 72.3541 421.712C57.7075 407.066 57.7075 383.319 72.3541 368.672L153.682 287.344C168.329 272.698 192.075 272.698 206.722 287.344C221.369 301.991 221.369 325.738 206.722 340.384L125.394 421.712Z" fill="#4338CA"/>
<path d="M37.5049 284.537C16.7915 284.537 -2.47005e-07 267.746 0 247.032C2.47005e-07 226.319 16.7915 209.527 37.5049 209.527H152.52C173.233 209.527 190.025 226.319 190.025 247.032C190.025 267.746 173.233 284.537 152.52 284.537H37.5049Z" fill="#4338CA"/>
<path d="M72.3541 125.396C57.7075 110.749 57.7075 87.0026 72.3541 72.356C87.0007 57.7094 110.747 57.7095 125.394 72.356L206.722 153.684C221.369 168.331 221.368 192.077 206.722 206.724C192.075 221.371 168.329 221.371 153.682 206.724L72.3541 125.396Z" fill="#4338CA"/>
<path d="M386.632 18.7558C398.027 21.2777 407.032 26.6561 412.829 35.1308C418.402 43.2785 419.753 52.4777 419.722 60.2986C419.694 67.4024 418.506 74.5531 417.324 80.6015C423.529 80.223 430.345 80.1489 436.881 80.8704C444.516 81.713 453.167 83.7436 460.65 88.6181C468.623 93.8124 474.565 101.814 476.604 112.698C478.619 123.455 477.703 133.36 473.592 142.084C469.528 150.709 462.96 156.865 455.922 161.305C442.506 169.769 424.735 173.511 411.297 176.249C390.759 180.435 360.157 186.036 335.369 161.248C310.063 135.942 318.739 101.522 322.852 86.6232C325.433 77.2753 329.356 59.2848 337.232 45.0207C341.315 37.6257 347.014 30.0875 355.193 24.8223C363.695 19.3493 373.892 16.9779 385.459 18.5474L386.05 18.6274L386.632 18.7558ZM389.15 51.3145C388.388 50.201 386.558 48.2338 381.057 46.911C376.267 46.3697 373.148 47.4085 370.744 48.956C367.922 50.7726 365.087 53.9672 362.357 58.912C356.606 69.3278 353.783 82.4467 350.514 94.2885C346.047 110.468 343.249 128.568 355.649 140.968C368.568 153.887 384.146 152.49 405.538 148.131C419.963 145.192 432.367 142.22 440.592 137.031C444.376 134.644 446.496 132.238 447.631 129.829C448.72 127.517 449.516 123.915 448.399 117.952C447.875 115.157 446.729 113.78 445.004 112.657C442.788 111.213 439.132 109.986 433.764 109.393C422.771 108.18 410.477 110.061 401.406 111.064C397.125 111.538 392.855 110.062 389.777 107.044C386.698 104.027 385.137 99.7868 385.524 95.4963C386.064 89.519 387.715 82.2903 388.844 76.6685C390.104 70.3943 391.008 64.9228 391.026 60.1542C391.045 55.4058 390.162 52.7947 389.15 51.3145Z" fill="#F47151"/>
<ellipse cx="375.026" cy="97.974" rx="38.344" ry="58.1771" fill="#F47151"/>
<ellipse cx="401.48" cy="125.829" rx="38.344" ry="58.1771" transform="rotate(75 401.48 125.829)" fill="#F47151"/>
</svg>
